<svg xmlns="http://www.w3.org/2000/svg" viewBox="0 0 24 24"><path d="M5 6h14v11H5z" style="fill:#fff"/><path d="M22.146 6.255c.043.444.937 10.944-9.555 16.872a1.12 1.12 0 0 1-1.092.01C.58 17.2 1.856 6.328 1.871 6.219a1.13 1.13 0 0 1 .613-.865L11.532.845a1.12 1.12 0 0 1 1.009.002l8.988 4.51c.346.173.58.512.617.898M6.808 15.683q0 .046.114.167t.236.228.167.107q.031 0 .266-.031.235-.03.555-.068t.631-.084.463-.06l.289-.563a3.2 3.2 0 0 0 .243-.539q.076-.235.076-.327V8.225q.14-.101.282-.187a.95.95 0 0 1 .494-.152q.243 0 .402.083.16.084.251.281.091.198.091.548v6.87q0 .046.099.167.1.122.221.236t.167.114.289-.031l.57-.068q.326-.038.63-.084.305-.045.456-.06l.289-.563a3.2 3.2 0 0 0 .243-.539q.076-.235.076-.327V8.225q.14-.101.282-.187a.95.95 0 0 1 .494-.152q.243 0 .402.083.16.084.251.281.091.198.091.548v6.87q0 .046.099.167.1.122.221.236t.167.114.273-.023q.228-.023.532-.061t.593-.076.471-.068v-.593l-.942-.228V9.041q0-.684-.16-1.186-.159-.5-.402-.79a1.6 1.6 0 0 0-.472-.205 3.5 3.5 0 0 0-1.094-.114q-.076.015-.365.197a19 19 0 0 0-1.231.851v7.497l-.836-.155V9.041q0-.456-.076-.836a3.5 3.5 0 0 0-.198-.669 1.6 1.6 0 0 0-.288-.471 1.6 1.6 0 0 0-.472-.205 3.5 3.5 0 0 0-1.094-.114q-.076.015-.365.197a19 19 0 0 0-1.231.851v7.503l-.836-.146V7.262q0-.045-.099-.174a1.6 1.6 0 0 0-.22-.236q-.122-.106-.167-.106t-.274.022q-.228.023-.532.061t-.593.076q-.29.038-.471.069v.592l.942.228z" style="fill:#6338ca"/></svg>