<svg xmlns="http://www.w3.org/2000/svg" viewBox="0 0 116 28"><path d="M114.467 8.852c.043.444.937 10.944-9.555 16.872a1.12 1.12 0 0 1-1.092.01c-10.919-5.937-9.643-16.809-9.628-16.918a1.13 1.13 0 0 1 .613-.865l9.048-4.509a1.12 1.12 0 0 1 1.009.002l8.988 4.51c.346.173.58.512.617.898M99.129 18.28q0 .046.114.167t.236.228.167.107q.031 0 .266-.031.235-.03.555-.068t.631-.084.463-.06l.289-.563a3.2 3.2 0 0 0 .243-.539q.076-.235.076-.327v-6.288q.14-.101.282-.187a.95.95 0 0 1 .494-.152q.243 0 .402.083.16.084.251.281.091.198.091.548v6.87q0 .046.099.167.1.122.221.236t.167.114.289-.031l.57-.068q.326-.038.63-.084.305-.045.456-.06l.289-.563a3.2 3.2 0 0 0 .243-.539q.076-.235.076-.327v-6.288q.14-.101.282-.187a.95.95 0 0 1 .494-.152q.243 0 .402.083.16.084.251.281.091.198.091.548v6.87q0 .046.099.167.1.122.221.236t.167.114.273-.023.532-.061.593-.076q.29-.038.471-.068v-.593l-.942-.228v-6.095q0-.684-.16-1.186-.159-.5-.402-.79a1.6 1.6 0 0 0-.472-.205 3.5 3.5 0 0 0-1.094-.114q-.076.015-.365.197a19 19 0 0 0-1.231.851v7.497l-.836-.155v-6.095q0-.456-.076-.836a3.5 3.5 0 0 0-.198-.669 1.6 1.6 0 0 0-.288-.471 1.6 1.6 0 0 0-.472-.205 3.5 3.5 0 0 0-1.094-.114q-.076.015-.365.197a19 19 0 0 0-1.231.851v7.503l-.836-.146V9.859q0-.045-.099-.174a1.6 1.6 0 0 0-.22-.236q-.122-.106-.167-.106t-.274.022q-.228.023-.532.061t-.593.076q-.29.037-.471.069v.592l.942.228z" style="fill:#6338ca"/><path d="M1.677 25.985V8.749h4.78v17.236zM4.078 6.527a2.57 2.57 0 0 1-1.823-.71q-.758-.71-.758-1.705 0-.997.761-1.709a2.57 2.57 0 0 1 1.82-.713q1.067 0 1.824.71t.757 1.705q0 .997-.757 1.709a2.57 2.57 0 0 1-1.824.713m12.546 19.739q-1.963 0-3.552-1.016t-2.514-2.996q-.925-1.981-.925-4.865 0-2.962.954-4.932.952-1.969 2.541-2.951a6.5 6.5 0 0 1 3.485-.982q1.447 0 2.418.488.97.487 1.571 1.212.6.724.914 1.42h.146V3.003h4.769v22.982h-4.713v-2.761h-.202q-.336.719-.948 1.42-.611.7-1.582 1.161-.971.46-2.362.461m1.515-3.805q1.155 0 1.958-.634t1.234-1.778q.432-1.145.432-2.682 0-1.538-.426-2.671-.427-1.133-1.235-1.75-.808-.618-1.963-.618-1.179 0-1.987.64t-1.223 1.773-.415 2.626q0 1.504.421 2.654t1.223 1.795 1.981.645" style="fill:#3858ca"/><path d="M30.347 25.985V8.749h4.556v3.041h.202q.539-1.515 1.795-2.391 1.257-.875 3.008-.875 1.773 0 3.018.881 1.246.88 1.661 2.385h.18q.527-1.482 1.913-2.374t3.282-.892q2.413 0 3.922 1.532t1.51 4.337v11.592h-4.77V15.336q0-1.437-.763-2.155t-1.907-.718q-1.302 0-2.031.825t-.73 2.171v10.526h-4.634v-10.75q0-1.268-.724-2.02t-1.902-.752a2.64 2.64 0 0 0-1.431.398 2.8 2.8 0 0 0-1.004 1.111q-.37.713-.371 1.667v10.346zm33.732.325q-1.65 0-2.94-.577a4.64 4.64 0 0 1-2.037-1.717q-.746-1.139-.746-2.845 0-1.436.527-2.413a4.3 4.3 0 0 1 1.437-1.571 7 7 0 0 1 2.07-.897 15.7 15.7 0 0 1 2.441-.427 55 55 0 0 0 2.423-.297q.92-.14 1.336-.421.415-.28.415-.83v-.068q0-1.066-.668-1.649-.667-.584-1.891-.584-1.29 0-2.053.567T63.383 14l-4.421-.359q.336-1.57 1.324-2.721.987-1.15 2.553-1.773t3.63-.623q1.436 0 2.755.337t2.345 1.043a5.1 5.1 0 0 1 1.622 1.813q.594 1.105.594 2.642v11.626h-4.533v-2.39h-.135a4.8 4.8 0 0 1-1.111 1.419 5 5 0 0 1-1.672.954q-.976.342-2.255.342m1.369-3.299q1.055 0 1.863-.421.808-.42 1.268-1.139.46-.718.46-1.627v-1.829q-.225.146-.612.264t-.87.213q-.482.096-.965.168-.482.073-.875.13a6 6 0 0 0-1.47.392q-.628.27-.976.724t-.348 1.128q0 .976.712 1.487.713.51 1.813.51M77.5 25.985V8.749h4.78v17.236zm2.401-19.458a2.57 2.57 0 0 1-1.823-.71q-.758-.71-.758-1.705 0-.997.761-1.709a2.57 2.57 0 0 1 1.82-.713q1.067 0 1.824.71t.757 1.705q0 .997-.757 1.709a2.57 2.57 0 0 1-1.824.713m10.975-3.524v22.982h-4.78V3.003z" style="fill:#6338ca"/></svg>