<svg xmlns="http://www.w3.org/2000/svg" viewBox="0 0 500 500"><defs><linearGradient id="a" x1="250" x2="250" y1="24.063" y2="475.936" gradientTransform="matrix(.96772 0 0 .96772 8.07 8.07)" gradientUnits="userSpaceOnUse"><stop offset="0" style="stop-color:rgb(22.745% 53.333% 87.451%)"/><stop offset="1" style="stop-color:rgb(0% 31.877% 59.55%)"/></linearGradient><clipPath id="b"><path d="M434.817 121.151 260.504 33.698a21.79 21.79 0 0 0-19.566-.041L65.446 121.108c-6.493 3.279-10.977 9.551-11.894 16.768-.284 2.121-25.034 212.966 186.731 328.118a21.8 21.8 0 0 0 21.183-.196C464.944 350.82 447.607 147.19 446.776 138.577a21.81 21.81 0 0 0-11.959-17.426Z" style="stroke:#000;stroke-width:50px"/></clipPath></defs><path d="M434.817 121.15 260.504 33.697a21.79 21.79 0 0 0-19.566-.041L65.446 121.107c-6.493 3.279-10.977 9.551-11.894 16.768-.284 2.121-25.034 212.966 186.731 328.118a21.8 21.8 0 0 0 21.183-.196c203.478-114.978 186.141-318.608 185.31-327.221a21.81 21.81 0 0 0-11.959-17.426Z" style="fill-rule:nonzero;paint-order:fill;fill:url(#a);stroke-width:50px;stroke:rgba(207,207,207,.306)"/><path d="m322.62 162.48-65.798-32.509a15.49 15.49 0 0 0-13.644 0L177.38 162.48a20.96 20.96 0 0 0-11.809 18.876v69.582c0 11.639 9.581 21.107 21.36 21.107h126.138c11.779 0 21.36-9.468 21.36-21.107v-69.582a20.96 20.96 0 0 0-11.809-18.876m-73.984-21.721a3.09 3.09 0 0 1 2.728 0l63.842 31.532-64.015 32.452c-.861.422-1.951.353-2.812-.069l-64.584-31.881zM255.551 368.758a5.53 5.53 0 0 1-3.925-1.621 5.56 5.56 0 0 1-1.626-3.93v-14.204c-24.978-2.764-44.405-23.918-44.405-49.628v-5.551c12.461 19 29.141 21.759 44.405 22.142V302.15c0-1.415.544-2.842 1.626-3.924a5.54 5.54 0 0 1 3.925-1.626c1.421 0 2.842.544 3.924 1.626l34.93 34.453-34.93 34.458a5.53 5.53 0 0 1-3.924 1.621" style="fill:rgba(255,255,255,.933)"/><path d="M250 0h250v500H250z" style="fill:rgba(0,0,0,.1);clip-path:url(#b)"/></svg>